<!-- Generated by IcoMoon.io -->
<svg version="1.1" xmlns="http://www.w3.org/2000/svg" width="384" height="448" viewBox="0 0 384 448">
<title></title>
<g id="icomoon-ignore">
</g>
<path d="M232 339v-179h-80v179c0 8.75 7.25 13 16 13h48c8.75 0 16-4.25 16-13zM118 128h48.75l-31.5-40.25c-2.75-3.25-8.75-7.75-17.25-7.75-13.25 0-24 10.75-24 24s10.75 24 24 24zM290 104c0-13.25-10.75-24-24-24-8.5 0-14.5 4.5-17.25 7.75l-31.25 40.25h48.5c13.25 0 24-10.75 24-24zM384 168v80c0 4.5-3.5 8-8 8h-24v104c0 13.25-10.75 24-24 24h-272c-13.25 0-24-10.75-24-24v-104h-24c-4.5 0-8-3.5-8-8v-80c0-4.5 3.5-8 8-8h110c-31 0-56-25-56-56s25-56 56-56c16.75 0 32.25 7 42 19.25l32 41.25 32-41.25c9.75-12.25 25.25-19.25 42-19.25 31 0 56 25 56 56s-25 56-56 56h110c4.5 0 8 3.5 8 8z"></path>
</svg>
